<svg width="407" height="407" viewBox="0 0 407 407" fill="none" xmlns="http://www.w3.org/2000/svg">
<path d="M95.0471 23.545C56.193 36.2473 20.3278 48.576 16.2182 51.1911C1.27439 59.0367 -1.34079 73.6069 0.527192 138.613C2.76877 207.728 8.37271 231.265 32.2829 271.987C57.6874 314.576 117.089 365.386 162.668 382.945C177.985 388.549 178.359 388.549 201.896 376.967C240.002 357.54 273.626 332.509 270.264 325.411C269.143 321.675 267.649 316.071 267.275 312.709C265.781 300.753 261.297 300.753 245.98 313.456C237.387 320.18 218.707 332.883 204.137 341.849L177.612 357.54L162.294 350.068C97.6622 317.192 51.3363 263.02 34.8981 201.377C28.5469 176.346 25.5581 87.8036 31.1621 78.8372C32.6565 76.2221 65.9065 64.267 104.761 51.5647L175.744 28.7753L249.342 52.6855L322.941 76.5957L324.062 122.922C325.182 177.093 318.831 212.958 302.393 244.714C290.812 266.383 290.812 266.383 310.986 269.745C320.326 271.239 322.567 269.371 330.413 254.054C348.719 217.441 352.455 196.52 352.829 129.646C352.829 67.6294 352.829 66.8822 343.489 57.9159C333.402 48.2024 192.182 -0.738739 175.37 0.00845337C170.14 0.00845337 134.275 10.4691 95.0471 23.545Z" fill="url(#paint0_linear_1_40)"/>
<path d="M141.747 66.5085C109.617 76.9693 78.6088 103.495 62.9178 134.129C50.5891 158.04 50.2155 210.343 62.1706 235.748C80.4768 275.349 121.199 304.863 163.415 308.599C189.567 310.841 222.817 302.621 243.738 288.425L257.935 278.711L270.264 290.666C278.856 298.885 282.219 305.237 281.098 310.841C278.856 322.422 364.036 406.855 377.859 406.855C392.056 406.855 407 393.405 407 380.703C407 368.001 404.758 365.386 353.576 317.565C321.446 287.304 311.733 279.832 305.382 282.074C300.151 283.568 294.547 280.953 285.955 272.734L274 261.152L285.208 237.989C295.295 217.815 296.789 210.717 296.789 184.565C296.789 148.7 288.944 128.526 264.66 102.374C240.75 76.2221 217.213 65.7614 180.974 64.6406C164.536 63.8934 146.977 64.6406 141.747 66.5085ZM214.971 96.3963C248.222 111.34 269.143 143.096 271.758 181.95C273.252 201.377 271.758 208.475 263.539 225.661C231.41 290.666 148.845 302.621 101.772 248.45C84.2128 229.023 76.7408 205.486 78.9824 177.84C81.224 150.568 87.9487 135.997 107.002 116.944C126.429 97.5171 146.23 89.2979 175.37 89.2979C191.061 89.2979 204.884 91.9131 214.971 96.3963ZM304.635 297.765C306.876 299.259 309.865 305.237 311.359 311.588C313.227 318.686 326.303 334.751 347.972 355.672C382.343 389.296 392.056 405.734 359.927 376.22C312.854 332.883 295.668 314.577 293.427 304.863C291.185 294.776 295.668 291.787 304.635 297.765ZM365.531 341.849C391.683 366.133 396.539 373.231 387.573 373.231C382.343 373.231 332.281 325.037 332.281 320.18C332.281 313.456 340.5 318.686 365.531 341.849Z" fill="url(#paint1_linear_1_40)"/>
<path d="M156.69 130.767C139.131 138.986 120.078 146.832 113.727 147.205C107.749 147.953 101.772 148.7 101.025 148.7C96.5414 149.447 114.1 164.017 119.331 164.017C123.067 164.017 139.131 156.545 155.196 147.205C187.699 128.899 203.39 126.284 226.553 135.997C245.606 143.843 245.98 140.107 227.674 128.526C202.269 112.461 192.929 112.835 156.69 130.767Z" fill="url(#paint2_linear_1_40)"/>
<path d="M152.955 155.051C138.758 161.402 123.067 174.478 123.067 180.455C123.067 182.323 128.671 178.587 135.769 171.863C149.592 158.413 170.14 152.062 190.314 154.677C200.401 156.172 201.522 155.798 195.918 153.183C184.71 147.953 167.525 148.7 152.955 155.051Z" fill="url(#paint3_linear_1_40)"/>
<path d="M208.994 156.919C204.511 163.27 198.907 164.764 178.359 165.138C150.713 165.885 138.758 172.236 124.188 193.905C110.738 213.332 114.101 215.2 130.539 197.267C142.494 184.565 145.483 182.697 143.615 189.422C138.384 207.728 154.823 227.529 174.997 227.529C178.733 227.529 186.578 223.793 192.182 219.683C200.775 212.585 201.896 209.222 200.775 195.399C200.028 186.433 200.401 178.961 201.522 178.961C202.643 178.961 207.873 182.697 213.477 187.554C223.564 195.399 223.564 196.147 217.96 207.728C210.115 223.419 196.292 232.385 175.37 235.374L158.558 237.616L177.238 238.363C199.654 238.737 220.202 226.781 227.674 208.849C230.289 202.498 237.387 192.037 243.738 186.059C255.32 174.104 254.946 165.885 243.365 176.346C232.904 186.059 225.806 184.565 232.904 174.478C240.376 164.017 241.123 151.315 234.025 160.655C231.41 164.017 225.432 168.5 220.949 171.116C212.73 175.599 212.356 175.225 214.598 167.006C216.092 162.523 218.334 156.172 219.081 153.557C222.07 146.458 215.345 148.7 208.994 156.919ZM167.898 184.565C172.755 190.543 170.14 197.641 162.294 197.641C155.57 197.641 151.834 191.29 154.449 184.565C157.064 177.467 161.921 177.467 167.898 184.565Z" fill="url(#paint4_linear_1_40)"/>
<defs>
<linearGradient id="paint0_linear_1_40" x1="176.414" y1="-3.05176e-05" x2="176.414" y2="386.599" gradientUnits="userSpaceOnUse">
<stop stop-color="#3366FF"/>
<stop offset="1" stop-color="#9F38FF"/>
</linearGradient>
<linearGradient id="paint1_linear_1_40" x1="230.216" y1="64.3542" x2="230.216" y2="406.855" gradientUnits="userSpaceOnUse">
<stop stop-color="#3366FF"/>
<stop offset="1" stop-color="#9F38FF"/>
</linearGradient>
<linearGradient id="paint2_linear_1_40" x1="170.714" y1="116.879" x2="170.714" y2="164.017" gradientUnits="userSpaceOnUse">
<stop stop-color="#3366FF"/>
<stop offset="1" stop-color="#9F38FF"/>
</linearGradient>
<linearGradient id="paint3_linear_1_40" x1="161.17" y1="149.719" x2="161.17" y2="180.935" gradientUnits="userSpaceOnUse">
<stop stop-color="#3366FF"/>
<stop offset="1" stop-color="#9F38FF"/>
</linearGradient>
<linearGradient id="paint4_linear_1_40" x1="184.051" y1="149.304" x2="184.051" y2="238.371" gradientUnits="userSpaceOnUse">
<stop stop-color="#3366FF"/>
<stop offset="1" stop-color="#9F38FF"/>
</linearGradient>
</defs>
</svg>
